<?xml version="1.0" standalone="no"?><!DOCTYPE svg PUBLIC "-//W3C//DTD SVG 1.1//EN" "http://www.w3.org/Graphics/SVG/1.1/DTD/svg11.dtd"><svg t="1532945148933" class="icon" style="" viewBox="0 0 1024 1024" version="1.1" xmlns="http://www.w3.org/2000/svg" p-id="1959" xmlns:xlink="http://www.w3.org/1999/xlink" width="200" height="200"><defs><style type="text/css"></style></defs><path d="M871.9 402.4c0-120.2-97.4-217.6-217.6-217.6-55.8 0-106.6 21.2-145.1 55.7-38.5-34.5-89.3-55.7-145.1-55.7-120.2 0-217.6 97.4-217.6 217.6 0 44.2 13.3 85.2 35.9 119.6h-0.4c75.3 127 181 233.7 306.7 311 6.2 2.9 13.2 4.6 20.5 4.6 7.4 0 14.3-1.7 20.5-4.6 125.7-77.3 231.4-184 306.7-311h-0.4c22.6-34.3 35.9-75.4 35.9-119.6z" p-id="1960" fill="#fd5b47"></path></svg>